<svg width="53" height="53" viewBox="0 0 53 53" fill="none" xmlns="http://www.w3.org/2000/svg">
<path d="M34.7724 22.5742C34.7724 24.8798 33.8565 27.0909 32.2262 28.7211C30.5959 30.3514 28.3848 31.2673 26.0793 31.2673C23.7737 31.2673 21.5626 30.3514 19.9323 28.7211C18.302 27.0909 17.3862 24.8798 17.3862 22.5742C17.3862 20.2686 18.302 18.0575 19.9323 16.4273C21.5626 14.797 23.7737 13.8811 26.0793 13.8811C28.3848 13.8811 30.5959 14.797 32.2262 16.4273C33.8565 18.0575 34.7724 20.2686 34.7724 22.5742Z" fill="white"/>
<path fill-rule="evenodd" clip-rule="evenodd" d="M25.1926 48.6361C13.6014 48.171 4.34653 38.626 4.34653 26.9207C4.34653 14.9177 14.0763 5.18799 26.0793 5.18799C38.0823 5.18799 47.812 14.9177 47.812 26.9207C47.812 38.9237 38.0823 48.6535 26.0793 48.6535H25.7815C25.5845 48.6535 25.3882 48.6477 25.1926 48.6361ZM12.1334 40.6341C11.9709 40.1674 11.9156 39.6702 11.9715 39.1793C12.0275 38.6883 12.1934 38.2163 12.4567 37.7982C12.7201 37.3802 13.0742 37.0268 13.4929 36.7643C13.9115 36.5018 14.3839 36.337 14.875 36.2821C23.3464 35.3443 28.8643 35.4291 37.2944 36.3017C37.7862 36.3529 38.2597 36.5156 38.679 36.7775C39.0983 37.0394 39.4523 37.3935 39.7141 37.8129C39.9759 38.2322 40.1385 38.7058 40.1896 39.1975C40.2407 39.6893 40.1788 40.1862 40.0089 40.6504C43.6221 36.995 45.6454 32.0605 45.6387 26.9207C45.6387 16.1185 36.8815 7.36126 26.0793 7.36126C15.277 7.36126 6.5198 16.1185 6.5198 26.9207C6.5198 32.2626 8.66156 37.1047 12.1334 40.6341Z" fill="white"/>
</svg>
